<?xml version="1.0" encoding="iso-8859-1"?>
<!-- Uploaded to: SVG Repo, www.svgrepo.com, Generator: SVG Repo Mixer Tools -->
<svg fill="#000000" height="800px" width="800px" version="1.1" id="Layer_1" xmlns="http://www.w3.org/2000/svg" xmlns:xlink="http://www.w3.org/1999/xlink" 
	 viewBox="0 0 512 512" xml:space="preserve">
<g transform="translate(0 1)">
	<g>
		<g>
			<path d="M418.133,195.267c-33.28,0-59.733,26.453-59.733,59.733c0,33.28,26.453,59.733,59.733,59.733S477.867,288.28,477.867,255
				C477.867,221.72,451.413,195.267,418.133,195.267z M459.2,266.77c-1.481-2.035-3.905-3.236-6.933-3.236
				c-5.12,0-8.533,3.413-8.533,8.533c0,5.12,3.413,8.533,8.533,8.533c0.071,0,0.139-0.008,0.209-0.009
				c-4.847,6.548-11.546,11.606-19.383,14.462c1.34-1.477,2.107-3.505,2.107-5.92c0-5.12-3.413-8.533-8.533-8.533
				s-8.533,3.413-8.533,8.533c0,4.121,2.214,7.132,5.746,8.152c-1.878,0.243-3.792,0.381-5.746,0.381
				c-23.893,0-42.667-18.773-42.667-42.667c0-23.893,18.773-42.667,42.667-42.667c1.953,0,3.868,0.138,5.746,0.381
				c-3.532,1.02-5.746,4.031-5.746,8.152c0,5.12,3.413,8.533,8.533,8.533s8.533-3.413,8.533-8.533c0-2.415-0.767-4.444-2.107-5.92
				c7.837,2.857,14.536,7.914,19.383,14.462c-0.071-0.001-0.138-0.009-0.209-0.009c-5.12,0-8.533,3.413-8.533,8.533
				s3.413,8.533,8.533,8.533c3.028,0,5.452-1.201,6.933-3.236c1.036,3.728,1.6,7.671,1.6,11.77S460.236,263.041,459.2,266.77z"/>
			<path d="M426.667,246.467c-5.12,0-8.533,3.413-8.533,8.533s3.413,8.533,8.533,8.533S435.2,260.12,435.2,255
				S431.787,246.467,426.667,246.467z"/>
			<path d="M512,255c0-52.053-41.813-93.867-93.867-93.867H76.8c-18.773,0-34.133,15.36-34.133,34.133
				c0,18.773,15.36,34.133,34.133,34.133h76.8c14.507,0,25.6,11.093,25.6,25.6c0,14.507-11.093,25.6-25.6,25.6h-51.2
				c-18.773,0-34.133,15.36-34.133,34.133c0,18.773,15.36,34.133,34.133,34.133h315.733C470.187,348.867,512,307.053,512,255z
				 M418.133,331.8H102.4c-9.387,0-17.067-7.68-17.067-17.067s7.68-17.067,17.067-17.067h51.2c23.893,0,42.667-18.773,42.667-42.667
				c0-23.893-18.773-42.667-42.667-42.667H76.8c-9.387,0-17.067-7.68-17.067-17.067S67.413,178.2,76.8,178.2h341.333
				c42.667,0,76.8,34.133,76.8,76.8C494.933,297.667,460.8,331.8,418.133,331.8z"/>
			<path d="M273.067,246.467c-5.12,0-8.533,3.413-8.533,8.533s3.413,8.533,8.533,8.533c5.12,0,8.533-3.413,8.533-8.533
				S278.187,246.467,273.067,246.467z"/>
			<path d="M238.933,246.467h-17.067c-5.12,0-8.533,3.413-8.533,8.533s3.413,8.533,8.533,8.533h17.067
				c5.12,0,8.533-3.413,8.533-8.533S244.053,246.467,238.933,246.467z"/>
			<path d="M332.8,246.467h-25.6c-5.12,0-8.533,3.413-8.533,8.533s3.413,8.533,8.533,8.533h25.6c5.12,0,8.533-3.413,8.533-8.533
				S337.92,246.467,332.8,246.467z"/>
			<path d="M204.8,220.867h68.267c5.12,0,8.533-3.413,8.533-8.533c0-5.12-3.413-8.533-8.533-8.533H204.8
				c-5.12,0-8.533,3.413-8.533,8.533C196.267,217.453,199.68,220.867,204.8,220.867z"/>
			<path d="M307.2,220.867h17.067c5.12,0,8.533-3.413,8.533-8.533c0-5.12-3.413-8.533-8.533-8.533H307.2
				c-5.12,0-8.533,3.413-8.533,8.533C298.667,217.453,302.08,220.867,307.2,220.867z"/>
			<path d="M324.267,289.133H256c-5.12,0-8.533,3.413-8.533,8.533S250.88,306.2,256,306.2h68.267c5.12,0,8.533-3.413,8.533-8.533
				S329.387,289.133,324.267,289.133z"/>
			<path d="M221.867,289.133H204.8c-5.12,0-8.533,3.413-8.533,8.533s3.413,8.533,8.533,8.533h17.067c5.12,0,8.533-3.413,8.533-8.533
				S226.987,289.133,221.867,289.133z"/>
			<path d="M435.2,58.733c5.12,0,8.533-3.413,8.533-8.533s-3.413-8.533-8.533-8.533s-8.533,3.413-8.533,8.533
				S430.08,58.733,435.2,58.733z"/>
			<path d="M281.6,408.6c-5.12,0-8.533,3.413-8.533,8.533s3.413,8.533,8.533,8.533s8.533-3.413,8.533-8.533
				S286.72,408.6,281.6,408.6z"/>
			<path d="M170.667,109.933c5.12,0,8.533-3.413,8.533-8.533s-3.413-8.533-8.533-8.533s-8.533,3.413-8.533,8.533
				S165.547,109.933,170.667,109.933z"/>
			<path d="M8.533,442.733c-5.12,0-8.533,3.413-8.533,8.533c0,5.12,3.413,8.533,8.533,8.533s8.533-3.413,8.533-8.533
				C17.067,446.147,13.653,442.733,8.533,442.733z"/>
			<path d="M8.533,58.733h13.653l20.48,20.48v13.653c0,5.12,3.413,8.533,8.533,8.533s8.533-3.413,8.533-8.533V79.213l20.48-20.48
				h13.653c5.12,0,8.533-3.413,8.533-8.533s-3.413-8.533-8.533-8.533H80.213l-20.48-20.48V7.533C59.733,2.413,56.32-1,51.2-1
				s-8.533,3.413-8.533,8.533v13.653l-20.48,20.48H8.533C3.413,41.667,0,45.08,0,50.2S3.413,58.733,8.533,58.733z M51.2,36.547
				L64.853,50.2L51.2,63.853L37.547,50.2L51.2,36.547z"/>
			<path d="M503.467,459.8c-14.507,0-25.6-11.093-25.6-25.6c0-5.12-3.413-8.533-8.533-8.533s-8.533,3.413-8.533,8.533
				c0,14.507-11.093,25.6-25.6,25.6c-5.12,0-8.533,3.413-8.533,8.533s3.413,8.533,8.533,8.533c14.507,0,25.6,11.093,25.6,25.6
				c0,5.12,3.413,8.533,8.533,8.533s8.533-3.413,8.533-8.533c0-14.507,11.093-25.6,25.6-25.6c5.12,0,8.533-3.413,8.533-8.533
				S508.587,459.8,503.467,459.8z M469.333,476.867c-2.56-3.413-5.12-5.973-8.533-8.533c3.413-2.56,5.973-5.12,8.533-8.533
				c2.56,3.413,5.12,5.973,8.533,8.533C474.453,470.893,471.893,473.453,469.333,476.867z"/>
		</g>
	</g>
</g>
</svg>