<?xml version="1.0" standalone="no"?>
<!DOCTYPE svg PUBLIC "-//W3C//DTD SVG 20010904//EN"
 "http://www.w3.org/TR/2001/REC-SVG-20010904/DTD/svg10.dtd">
<svg version="1.0" xmlns="http://www.w3.org/2000/svg"
 width="2579.000000pt" height="2756.000000pt" viewBox="0 0 2579.000000 2756.000000"
 preserveAspectRatio="xMidYMid meet">

<g transform="translate(0.000000,2756.000000) scale(0.100000,-0.100000)"
fill="#000000" stroke="none">
<path d="M9930 26956 l-1025 -593 -3 -12585 -2 -12584 1032 -597 1033 -596 3
6370 2 6369 1925 0 1925 0 2 -6368 3 -6368 1025 591 1025 592 2 12589 3 12589
-1028 593 -1027 592 -3 -6370 -2 -6370 -1925 0 -1925 0 0 6370 c0 3504 -3
6370 -7 6369 -5 0 -469 -267 -1033 -593z"/>
<path d="M6595 25030 c-550 -318 -2258 -1305 -3795 -2192 l-2795 -1614 -3
-7445 -2 -7446 1032 -596 1033 -596 3 3800 2 3799 2765 0 2765 0 0 6435 c0
3539 -1 6435 -2 6434 -2 0 -453 -261 -1003 -579z m-1065 -6615 l0 -3605 -1730
0 -1730 0 2 2611 3 2610 1720 994 c946 547 1723 994 1728 994 4 1 7 -1621 7
-3604z"/>
<path d="M18190 13779 l0 -11830 28 15 c15 8 470 270 1012 583 542 313 2223
1284 3735 2157 1513 873 2767 1599 2788 1612 l37 24 -2 2118 -3 2117 -1032 3
-1033 2 -2 -1527 -3 -1527 -1725 -996 -1725 -997 -3 4124 c-1 2269 -1 5978 0
8244 l3 4119 1728 -997 1727 -997 0 -1523 0 -1523 1035 0 1035 0 -2 2121 -3
2120 -2745 1586 c-1510 872 -3219 1859 -3797 2193 l-1053 608 0 -11829z"/>
</g>
</svg>
